<?xml version="1.0" encoding="UTF-8"?>
<svg version="1.1" xmlns="http://www.w3.org/2000/svg" width="1024" height="512">
<path d="M0 0 C337.92 0 675.84 0 1024 0 C1024 168.96 1024 337.92 1024 512 C686.08 512 348.16 512 0 512 C0 343.04 0 174.08 0 0 Z " fill="#FDFDFE" transform="translate(0,0)"/>
<path d="M0 0 C8.56297657 -0.06980773 17.12583231 -0.1229663 25.68902397 -0.15543652 C29.666158 -0.17102819 33.64309596 -0.19214604 37.62011719 -0.22631836 C41.4651085 -0.25914583 45.30991236 -0.27690176 49.15503311 -0.28463173 C50.61490958 -0.29013361 52.07477692 -0.30087635 53.5345726 -0.31719017 C68.25617345 -0.47502249 78.61705299 2.17130861 89.6875 12.125 C98.01709948 21.01767264 100.33573323 31.06132645 100 43 C99.28993549 52.52066089 94.08297182 61.99801938 87.1171875 68.4375 C80.73933026 73.14440571 73.59448116 75.97796939 66 78 C66.70382813 79.10472656 67.40765625 80.20945312 68.1328125 81.34765625 C74.06405709 90.68314045 79.91905446 100.06296653 85.6875 109.5 C86.29932129 110.49652588 86.91114258 111.49305176 87.54150391 112.51977539 C88.1091748 113.45168701 88.6768457 114.38359863 89.26171875 115.34375 C90.01908325 116.58415039 90.01908325 116.58415039 90.79174805 117.84960938 C92 120 92 120 93 123 C82.44 123 71.88 123 61 123 C58.9375 119.308125 56.875 115.61625 54.75 111.8125 C50.11212627 103.52523195 45.45805739 95.24765205 40.75 87 C40.26724609 86.1536499 39.78449219 85.3072998 39.28710938 84.43530273 C36.9054998 80.27514001 34.49447661 76.13585606 32.03125 72.0234375 C31.56235352 71.23839844 31.09345703 70.45335937 30.61035156 69.64453125 C29.72778317 68.1721056 28.83944064 66.70311975 27.94433594 65.23828125 C25 60.33024156 25 60.33024156 25 57 C26.0737085 56.9906543 27.14741699 56.98130859 28.25366211 56.97167969 C32.27408878 56.9315161 36.29377125 56.8656871 40.3137207 56.79248047 C42.04669566 56.76442263 43.77979497 56.74313325 45.51293945 56.72900391 C58.9393921 57.06300035 58.9393921 57.06300035 71 52 C74.68973467 48.00725659 76.29664578 44.39581947 76.5625 38.9375 C76.2676472 33.88620601 75.11770001 30.99705129 72 27 C65.84661326 22.3995347 60.65867022 22.51977027 53.15234375 22.70703125 C50.83268785 22.71690221 48.51302541 22.72532191 46.19335938 22.73242188 C42.55652154 22.76563838 38.92116632 22.8128308 35.28491211 22.88647461 C31.76063392 22.94954841 28.23960848 22.95695265 24.71484375 22.95703125 C23.08807961 23.01272026 23.08807961 23.01272026 21.42845154 23.0695343 C14.15142697 23.02357036 14.15142697 23.02357036 11.18777466 20.38900757 C9.53562216 18.00813531 8.27591948 15.60298788 7 13 C6.03513388 11.23892695 5.07016748 9.47790256 4.10020351 7.71963215 C2.7013188 5.16324532 1.34929283 2.58281794 0 0 Z " fill="#171718" transform="translate(78,203)"/>
<path d="M0 0 C6.703125 -0.0825 13.40625 -0.165 20.3125 -0.25 C22.40505127 -0.28641602 24.49760254 -0.32283203 26.65356445 -0.36035156 C39.37770703 -0.49078204 49.46507781 0.19123482 59.34375 9.0234375 C63.6834046 14.20236492 64.52964492 18.8629455 64.4375 25.375 C64.42847656 26.13087402 64.41945313 26.88674805 64.41015625 27.66552734 C64.19611024 34.53432323 62.9729457 38.89422056 58.1640625 43.91796875 C54.38391853 47.43017148 50.67557289 49.78210004 46 52 C48.39452195 55.52172683 50.79085456 59.042218 53.1875 62.5625 C53.86103516 63.55314453 54.53457031 64.54378906 55.22851562 65.56445312 C58.09885771 69.77895541 60.96815443 73.98097986 63.98828125 78.08984375 C66 81 66 81 66 83 C53.87059872 84.64865649 53.87059872 84.64865649 48 83 C44.14153752 79.48244585 42.1567981 75.66565357 39.96777344 70.98095703 C38.39029199 67.75197508 36.43177921 64.77524727 34.5 61.75 C31.14893617 56.29787234 31.14893617 56.29787234 30 54 C27.44242141 53.68658574 25.00356179 53.48771761 22.4375 53.375 C19.983125 53.25125 17.52875 53.1275 15 53 C15 62.9 15 72.8 15 83 C10.05 83 5.1 83 0 83 C0 55.61 0 28.22 0 0 Z " fill="#16161B" transform="translate(351,226)"/>
<path d="M0 0 C4.95 0 9.9 0 15 0 C15 28.05 15 56.1 15 85 C10.05 85 5.1 85 0 85 C-0.33 83.02 -0.66 81.04 -1 79 C-1.86625 79.763125 -2.7325 80.52625 -3.625 81.3125 C-9.9347949 86.87112884 -15.91367829 87.65764774 -24.1015625 87.47265625 C-31.94900796 86.52121246 -38.42223499 83.00344771 -44 77.4375 C-49.18528151 70.81961015 -51.79149265 61.55875747 -51.31640625 53.17578125 C-50.02837602 44.3185857 -46.82726974 36.04002682 -39.8203125 30.17578125 C-31.76237952 24.57321169 -24.75611401 23.1784325 -15 24 C-8.8118851 25.32013118 -6.08993919 27.75838401 -1 32 C-0.67 21.44 -0.34 10.88 0 0 Z " fill="#1A1B1F" transform="translate(606,224)"/>
<path d="M0 0 C1.98 0 3.96 0 6 0 C11.10363971 10.08566366 16.0393582 20.23355488 20.81240845 30.47958374 C26.10209031 41.82711432 31.47886218 53.11591983 37.12817383 64.28979492 C41.76209358 73.46608944 46.17467313 82.74468508 50.58544922 92.02978516 C52.07239669 95.15201556 53.56827899 98.26983825 55.06640625 101.38671875 C55.56785156 102.43093994 56.06929688 103.47516113 56.5859375 104.55102539 C57.54710563 106.55202869 58.50929249 108.55254307 59.47265625 110.55249023 C59.90578125 111.45555908 60.33890625 112.35862793 60.78515625 113.2890625 C61.35568726 114.47556396 61.35568726 114.47556396 61.93774414 115.68603516 C63.04043242 118.08807595 64.0183953 120.54598826 65 123 C54.77 123 44.54 123 34 123 C29.7661877 114.2739479 25.53409429 105.54706863 21.30503845 96.81871033 C19.26107897 92.60056925 17.21518753 88.38337741 15.16685486 84.1673584 C8.36992674 70.17311359 1.68664611 56.13464267 -4.8269043 42.0065918 C-5.33133057 40.91258057 -5.83575684 39.81856934 -6.35546875 38.69140625 C-6.79528076 37.73435791 -7.23509277 36.77730957 -7.68823242 35.79125977 C-8.62880875 33.78984357 -9.6526909 31.82677958 -10.7277832 29.89428711 C-12 27 -12 27 -11.84399414 24.96386719 C-10.77413107 22.47443169 -9.67555947 20.01839891 -8.49609375 17.578125 C-8.00302734 16.55332031 -7.50996094 15.52851563 -7.00195312 14.47265625 C-6.48568359 13.40917969 -5.96941406 12.34570312 -5.4375 11.25 C-4.91736328 10.17105469 -4.39722656 9.09210938 -3.86132812 7.98046875 C-2.57754649 5.31868297 -1.29032396 2.65861887 0 0 Z " fill="#6829CB" transform="translate(210,203)"/>
<path d="M0 0 C1.39456452 0.00667256 2.78911118 0.01863093 4.18359375 0.03515625 C5.2499707 0.04192383 5.2499707 0.04192383 6.33789062 0.04882812 C8.09899388 0.06064761 9.86005411 0.07858362 11.62109375 0.09765625 C12.12858154 1.30373535 12.63606934 2.50981445 13.15893555 3.75244141 C26.3374587 35.06986594 26.3374587 35.06986594 39.78588867 66.27197266 C40.26904541 67.37976074 40.75220215 68.48754883 41.25 69.62890625 C41.6632251 70.57314453 42.0764502 71.51738281 42.50219727 72.49023438 C43.05605103 73.7809082 43.05605103 73.7809082 43.62109375 75.09765625 C44.18944946 76.4115332 44.18944946 76.4115332 44.76928711 77.75195312 C45.62109375 80.09765625 45.62109375 80.09765625 45.62109375 83.09765625 C40.34109375 83.09765625 35.06109375 83.09765625 29.62109375 83.09765625 C27.31109375 77.48765625 25.00109375 71.87765625 22.62109375 66.09765625 C10.08109375 66.09765625 -2.45890625 66.09765625 -15.37890625 66.09765625 C-17.68890625 71.70765625 -19.99890625 77.31765625 -22.37890625 83.09765625 C-27.65890625 83.09765625 -32.93890625 83.09765625 -38.37890625 83.09765625 C-36.35546819 76.76417245 -34.02497188 70.69776276 -31.3515625 64.61328125 C-30.77333488 63.2834597 -30.77333488 63.2834597 -30.1834259 61.92677307 C-29.36233211 60.03877719 -28.53965869 58.15146762 -27.71551514 56.26480103 C-25.56752813 51.34686257 -23.43120979 46.42387618 -21.296875 41.5 C-20.87420349 40.52508102 -20.45153198 39.55016205 -20.01605225 38.54570007 C-15.81524628 28.83377166 -11.75957247 19.06488696 -7.76977539 9.26464844 C-7.32883545 8.18473633 -6.88789551 7.10482422 -6.43359375 5.9921875 C-6.05702637 5.06253174 -5.68045898 4.13287598 -5.29248047 3.17504883 C-3.8330943 -0.14347519 -3.91504417 0.11315157 0 0 Z " fill="#6028C0" transform="translate(672.37890625,225.90234375)"/>
<path d="M0 0 C6.91459408 5.14817677 10.26108253 11.34851824 12.75 19.4375 C13.15668661 23.60603772 13 27.81167089 13 32 C-2.18 32 -17.36 32 -33 32 C-30.17685616 41.63976878 -30.17685616 41.63976878 -25.375 44.625 C-19.95550124 46.74041773 -14.23226155 47.1884948 -8.7265625 45.1640625 C-6.7553535 44.18944987 -4.88623376 43.12844552 -3 42 C-1.68 41.34 -0.36 40.68 1 40 C3.97 41.98 6.94 43.96 10 46 C6.87014354 52.25971292 1.89889776 55.60790387 -4.6875 57.875 C-14.77445137 60.45862098 -24.73522338 59.8708732 -34 55 C-41.56290077 50.12613061 -45.20520818 43.38437547 -48 35 C-48.9960475 18.85253772 -48.9960475 18.85253772 -45 12 C-44.60941406 11.32582031 -44.21882813 10.65164063 -43.81640625 9.95703125 C-39.37760389 3.25481693 -33.22780262 0.02199256 -26.125 -3.375 C-16.98521275 -5.20295745 -8.24973512 -4.49870348 0 0 Z " fill="#17181C" transform="translate(469,252)"/>
<path d="M0 0 C4.70146253 3.91788544 7.0780127 8.33505212 8.625 14.1875 C8.88524395 17.44854051 8.85833178 20.69131672 8.8203125 23.9609375 C8.8174826 24.8846817 8.81465271 25.8084259 8.81173706 26.76016235 C8.80059179 29.69440976 8.77549765 32.6283457 8.75 35.5625 C8.73996289 37.55858932 8.73083832 39.55468346 8.72265625 41.55078125 C8.70067097 46.42980649 8.66618017 51.30860054 8.625 56.1875 C4.005 56.1875 -0.615 56.1875 -5.375 56.1875 C-5.87 53.2175 -5.87 53.2175 -6.375 50.1875 C-7.035 50.950625 -7.695 51.71375 -8.375 52.5 C-13.27695171 57.30637048 -18.73254854 58.36984378 -25.375 58.5625 C-31.42724126 58.37193825 -36.55244955 57.79583904 -41.125 53.5703125 C-45.67661072 48.47163319 -47.86875123 44.39496856 -47.6875 37.49609375 C-46.9831557 32.29275026 -44.27474557 29.10816989 -40.6875 25.4375 C-33.40802872 19.92155388 -25.09933059 19.78379407 -16.3125 20 C-15.25611328 20.01353516 -14.19972656 20.02707031 -13.11132812 20.04101562 C-10.53200191 20.0760291 -7.95378506 20.12513325 -5.375 20.1875 C-5.81431173 18.72745111 -6.26588857 17.27108863 -6.72265625 15.81640625 C-7.09789429 14.59932983 -7.09789429 14.59932983 -7.48071289 13.35766602 C-8.2791193 10.94816376 -8.2791193 10.94816376 -10.8125 9.125 C-17.23908819 7.43379258 -24.41145797 6.62348116 -30.375 10.0625 C-31.365 10.76375 -32.355 11.465 -33.375 12.1875 C-34.69874391 12.87301024 -36.03027581 13.54411903 -37.375 14.1875 C-38.54760611 12.90122289 -39.7129283 11.60830217 -40.875 10.3125 C-41.5246875 9.59320313 -42.174375 8.87390625 -42.84375 8.1328125 C-44.375 6.1875 -44.375 6.1875 -44.375 4.1875 C-31.50050676 -6.73907937 -14.76952832 -7.93178373 0 0 Z " fill="#191A1E" transform="translate(536.375,252.8125)"/>
<path d="M0 0 C1.35339333 0.97267891 2.6930767 1.96572283 4 3 C3.42424336 6.35250701 2.40693737 7.93818629 -0.0625 10.25 C-0.61035156 10.77078125 -1.15820312 11.2915625 -1.72265625 11.828125 C-2.14417969 12.21484375 -2.56570313 12.6015625 -3 13 C-5.21654627 11.97088923 -7.10869177 10.91765775 -9.0625 9.4375 C-12.85647305 6.62261677 -16.41780083 6.67844216 -21 7 C-23.52040427 7.95173938 -23.52040427 7.95173938 -25 10 C-25.33397787 13.12586875 -25.33397787 13.12586875 -25 16 C-21.27187662 18.11596192 -17.78802371 19.38371653 -13.625 20.4375 C-7.13519633 22.1481276 -2.12642483 24.18367879 3 28.5625 C5.82631785 33.42023381 5.74599739 37.50749175 5 43 C2.861369 49.07821442 -0.72836765 52.7800493 -6.375 55.8125 C-15.2093071 58.72380575 -25.51453912 58.12949681 -33.90234375 54.22265625 C-36.95737958 52.44197429 -39.43373954 50.43119412 -42 48 C-40.4169423 43.7257442 -37.49431596 41.73468206 -34 39 C-31.46627181 40.16941301 -29.56661971 41.35083166 -27.375 43.125 C-21.85448647 46.19195196 -15.98566535 45.69639825 -10 44 C-10 41.36 -10 38.72 -10 36 C-15.23804218 33.17194906 -20.46667592 31.55410608 -26.16601562 29.98242188 C-31.98055093 28.27616223 -35.80137816 26.19058475 -38.8125 20.6875 C-40.24468677 16.24018318 -41.0272958 12.62347046 -39.2734375 8.14453125 C-36.16516705 2.218601 -31.82538699 -1.27283954 -25.4296875 -3.45703125 C-16.48434748 -5.45607026 -8.01111518 -4.41127705 0 0 Z " fill="#612AC0" transform="translate(763,254)"/>
<path d="M0 0 C1.875 1.875 1.875 1.875 1.875 3.875 C0.23046875 5.63671875 0.23046875 5.63671875 -1.9375 7.5625 C-2.64519531 8.20574219 -3.35289062 8.84898437 -4.08203125 9.51171875 C-5.09330078 10.18654297 -5.09330078 10.18654297 -6.125 10.875 C-7.115 10.545 -8.105 10.215 -9.125 9.875 C-9.125 9.215 -9.125 8.555 -9.125 7.875 C-12.80638637 6.1882557 -15.70693424 5.60272416 -19.75 5.625 C-20.69101562 5.61984375 -21.63203125 5.6146875 -22.6015625 5.609375 C-25.37075221 5.70332693 -25.37075221 5.70332693 -28.125 7.875 C-28.79180368 10.83220628 -28.79180368 10.83220628 -28.125 13.875 C-23.29664959 17.54418122 -17.60951396 18.36448262 -11.81640625 19.71484375 C-6.75339589 21.30607558 -3.29861169 23.57785024 0.25 27.5 C2.95252667 33.11294001 2.73622643 38.33916662 0.75 44.1875 C-3.22551554 49.88573894 -8.27710957 53.46194325 -15.125 54.875 C-25.52919544 55.89307163 -34.4900751 54.86740381 -42.75 48.125 C-43.53375 47.3825 -44.3175 46.64 -45.125 45.875 C-43.5364658 41.58595765 -40.69372632 39.55154474 -37.125 36.875 C-36.465 36.875 -35.805 36.875 -35.125 36.875 C-33.79166667 38.20833333 -32.45833333 39.54166667 -31.125 40.875 C-27.89571908 42.89595042 -25.34183295 43.1455678 -21.5625 43.125 C-20.13744141 43.13273437 -20.13744141 43.13273437 -18.68359375 43.140625 C-15.88400727 43.05076075 -15.88400727 43.05076075 -13.125 40.875 C-12.87484127 37.29142759 -12.87484127 37.29142759 -13.125 33.875 C-18.36304218 31.04694906 -23.59167592 29.42910608 -29.29101562 27.85742188 C-34.38974122 26.36121465 -38.30235334 24.53716876 -41.4140625 19.9921875 C-43.32018219 14.31572116 -42.9920888 7.86207849 -40.625 2.4375 C-29.28478623 -9.18621912 -13.06596878 -8.88485877 0 0 Z " fill="#612AC0" transform="translate(819.125,256.125)"/>
<path d="M0 0 C2.53987856 1.554193 3.83472603 2.9940277 5.42578125 5.484375 C4.14029716 6.82367005 2.8471997 8.15566143 1.55078125 9.484375 C0.83148437 10.226875 0.1121875 10.969375 -0.62890625 11.734375 C-2.57421875 13.484375 -2.57421875 13.484375 -4.57421875 13.484375 C-5.17234375 12.865625 -5.77046875 12.246875 -6.38671875 11.609375 C-9.59331876 8.49439213 -12.20911986 7.59581164 -16.63671875 7.234375 C-20.43631119 7.54004589 -20.43631119 7.54004589 -23.57421875 9.484375 C-24.65645241 12.39442403 -24.65645241 12.39442403 -24.57421875 15.484375 C-21.27206332 19.71792403 -15.95171093 20.23255 -10.99804688 21.50195312 C-5.13382658 23.092861 -0.87880646 25.54366956 3.80078125 29.484375 C6.42307159 34.32552639 6.12457759 39.10792153 5.42578125 44.484375 C3.72355088 49.8588327 0.31807754 52.842535 -4.57421875 55.484375 C-12.56070608 58.64023376 -22.53401427 59.18062986 -30.57421875 55.859375 C-34.72747957 53.66847081 -38.20629296 50.73317801 -41.57421875 47.484375 C-38.90755208 44.81770833 -36.24088542 42.15104167 -33.57421875 39.484375 C-31.04370394 40.65230491 -29.18056598 41.81081876 -27.01171875 43.609375 C-22.20072634 46.23355268 -17.94765127 46.31298843 -12.57421875 45.484375 C-9.70650695 44.0407902 -9.70650695 44.0407902 -8.57421875 41.484375 C-8.33020597 38.87046111 -8.33020597 38.87046111 -9.57421875 36.484375 C-13.07669831 33.99413687 -16.20381202 32.9536314 -20.38671875 32.109375 C-27.19802422 30.51559663 -32.89604469 27.79986552 -37.57421875 22.484375 C-39.28277013 17.35872086 -39.68337109 11.528885 -37.80859375 6.3828125 C-29.5249452 -6.85935806 -12.52176577 -5.48992166 0 0 Z " fill="#6129C0" transform="translate(897.57421875,253.515625)"/>
<path d="M0 0 C2.10375 0.0309375 2.10375 0.0309375 4.25 0.0625 C4.25 5.3425 4.25 10.6225 4.25 16.0625 C9.53 16.0625 14.81 16.0625 20.25 16.0625 C20.25 20.0225 20.25 23.9825 20.25 28.0625 C15.3 28.0625 10.35 28.0625 5.25 28.0625 C5.3469456 32.56536816 5.4496766 37.06731746 5.56738281 41.56958008 C5.60565798 43.10107339 5.64051349 44.63265615 5.671875 46.16430664 C5.71755807 48.3663733 5.77554537 50.56782496 5.8359375 52.76953125 C5.84748871 53.45400833 5.85903992 54.13848541 5.87094116 54.84370422 C5.98273744 58.44710837 6.19394553 59.9784183 8.25 63.0625 C10.9056728 63.64598752 10.9056728 63.64598752 13.875 63.75 C14.87789062 63.81574219 15.88078125 63.88148438 16.9140625 63.94921875 C17.68492187 63.98660156 18.45578125 64.02398437 19.25 64.0625 C19.25 67.3625 19.25 70.6625 19.25 74.0625 C13.86002274 76.48070601 9.08717696 76.85550583 3.25 76.0625 C-2.5201848 73.82918927 -5.74570133 70.45591136 -8.75 65.0625 C-9.26866253 62.15480334 -9.21876174 59.32872024 -9.140625 56.3828125 C-9.13496521 55.57004852 -9.12930542 54.75728455 -9.12347412 53.91989136 C-9.10120838 51.34181055 -9.05103315 48.76515569 -9 46.1875 C-8.9799222 44.43231184 -8.96167367 42.67710174 -8.9453125 40.921875 C-8.90137612 36.63487311 -8.83241911 32.34892773 -8.75 28.0625 C-12.05 28.0625 -15.35 28.0625 -18.75 28.0625 C-18.75 24.1025 -18.75 20.1425 -18.75 16.0625 C-15.45 16.0625 -12.15 16.0625 -8.75 16.0625 C-8.75 11.1125 -8.75 6.1625 -8.75 1.0625 C-5.48118027 0.24529507 -3.28000931 -0.04823543 0 0 Z " fill="#632DC1" transform="translate(925.75,234.9375)"/>
<path d="M0 0 C5.2354914 2.47495957 9.39229231 6.78458462 12 12 C12.71279523 19.18904902 12.93581159 25.45251503 8.49609375 31.4140625 C4.02883032 36.14959501 -0.10683801 37.7856917 -6.375 38.25 C-11.61111978 37.88888829 -14.62108576 36.09030428 -18.6875 32.875 C-22.86197323 27.68511436 -24.34772133 22.4560844 -23.9375 15.8125 C-23.10179452 10.0164781 -20.75722263 6.54802946 -16.375 2.6875 C-11.25198859 -0.95253443 -6.13330334 -0.57072679 0 0 Z " fill="#F9F9F9" transform="translate(594,261)"/>
<path d="M0 0 C9.57 0 19.14 0 29 0 C24.60338296 8.06046457 20.14854142 16.05023948 15.5625 24 C14.93279297 25.09828125 14.30308594 26.1965625 13.65429688 27.328125 C10.55788549 32.69990548 7.41308071 38.03859772 4.15234375 43.3125 C3.59409912 44.21613281 3.03585449 45.11976563 2.46069336 46.05078125 C1.97866455 46.69402344 1.49663574 47.33726562 1 48 C0.34 48 -0.32 48 -1 48 C-2.31274414 46.22753906 -2.31274414 46.22753906 -3.78515625 43.765625 C-4.31560547 42.88132812 -4.84605469 41.99703125 -5.39257812 41.0859375 C-6.21918945 39.68214844 -6.21918945 39.68214844 -7.0625 38.25 C-7.61744141 37.32960938 -8.17238281 36.40921875 -8.74414062 35.4609375 C-13.60766674 27.28594842 -13.60766674 27.28594842 -14 24 C-12.71851626 21.46360706 -11.41083196 19.18540807 -9.875 16.8125 C-6.39416437 11.28781845 -3.18028823 5.72451882 0 0 Z " fill="#6629C8" transform="translate(180,275)"/>
<path d="M0 0 C4.95 0 9.9 0 15 0 C15.02255549 7.54498589 15.04091769 15.08995931 15.05181217 22.63497066 C15.05703989 26.13808885 15.0641355 29.64118285 15.07543945 33.14428711 C15.08834206 37.16780841 15.09322912 41.19130414 15.09765625 45.21484375 C15.10281754 46.47836166 15.10797882 47.74187958 15.11329651 49.04368591 C15.11337204 50.204814 15.11344757 51.36594208 15.11352539 52.56225586 C15.115746 53.59039902 15.11796661 54.61854218 15.12025452 55.67784119 C15 58 15 58 14 59 C9.38 59 4.76 59 0 59 C0 39.53 0 20.06 0 0 Z " fill="#6834C1" transform="translate(832,251)"/>
<path d="M0 0 C3.485625 -0.061875 6.97125 -0.12375 10.5625 -0.1875 C12.18973999 -0.22846802 12.18973999 -0.22846802 13.84985352 -0.27026367 C20.4903084 -0.32707191 25.35972899 0.21579272 30.77734375 4.359375 C33.0715083 7.10928268 33.99243016 8.9470111 34.5 12.5 C33.76873035 17.61888754 32.32433422 20.74358035 28.5625 24.3125 C24.64453772 26.8926215 21.4309499 27.12459855 16.796875 27.09765625 C15.91354492 27.09515869 15.03021484 27.09266113 14.12011719 27.09008789 C13.00797852 27.08098389 11.89583984 27.07187988 10.75 27.0625 C7.2025 27.041875 3.655 27.02125 0 27 C0 18.09 0 9.18 0 0 Z " fill="#FAFAFA" transform="translate(366,239)"/>
<path d="M0 0 C0.66 0 1.32 0 2 0 C3.61045085 4.12257348 5.21219341 8.24847925 6.8125 12.375 C7.26431641 13.53128906 7.71613281 14.68757813 8.18164062 15.87890625 C8.62314453 17.01972656 9.06464844 18.16054688 9.51953125 19.3359375 C9.92276611 20.37282715 10.32600098 21.4097168 10.74145508 22.47802734 C12.33161726 26.9280137 13.64211798 31.47372661 15 36 C5.76 36 -3.48 36 -13 36 C-9.625 24.75 -9.625 24.75 -7.51953125 19.3359375 C-6.85727539 17.62470703 -6.85727539 17.62470703 -6.18164062 15.87890625 C-5.72982422 14.72261719 -5.27800781 13.56632812 -4.8125 12.375 C-4.34908203 11.18003906 -3.88566406 9.98507813 -3.40820312 8.75390625 C-2.27551405 5.83460451 -1.13938352 2.91669396 0 0 Z " fill="#F4F1FA" transform="translate(675,243)"/>
<path d="M0 0 C0.315109 5.2518167 -0.1310292 8.54814877 -3 13 C-8.39075573 17.86482834 -11.9166599 18.41709191 -19.06640625 18.33984375 C-22 18 -22 18 -25.25 15.9375 C-27.46009338 12.2277004 -27.77210972 10.24660348 -27 6 C-20.62031139 -1.61446706 -8.95481888 -0.24912943 0 0 Z " fill="#F2F2F2" transform="translate(531,282)"/>
<path d="M0 0 C4.48141313 2.12277464 7.00031308 4.44515757 9 9 C9 10.65 9 12.3 9 14 C-1.23 14 -11.46 14 -22 14 C-20.97259133 7.835548 -20.1886012 6.28601053 -16 2 C-11.14023837 -1.09928399 -5.5479176 -0.60158143 0 0 Z " fill="#F2F2F3" transform="translate(458,260)"/>
<path d="M0 0 C3.34265205 1.20706879 3.94704566 1.92056849 6 5 C6.56551375 9.36253463 6.49322651 11.29752588 3.9375 14.9375 C1 17 1 17 -2.5 17.625 C-6.95850936 16.82883761 -8.40783917 15.69186542 -11 12 C-11.625 8.5 -11.625 8.5 -11 5 C-7.76968443 0.53456377 -5.48257884 -0.81655429 0 0 Z " fill="#622BC2" transform="translate(842,224)"/>
<path d="M0 0 C1.98 0 3.96 0 6 0 C6 0.99 6 1.98 6 3 C3.69 3 1.38 3 -1 3 C-0.67 2.01 -0.34 1.02 0 0 Z " fill="#7A32E2" transform="translate(210,203)"/>
</svg>
